<svg xmlns="http://www.w3.org/2000/svg" viewBox="0 0 5750.6635 1583.4144" role="img" aria-label="SL Construction logo">
  <title>SL Construction</title>
  <desc>S L CONSTRUCTION wordmark with gold emblem</desc>
  <g transform="translate(2426.6498,426.87649)">
    <g transform="translate(-4088.1154,668.85983)">
      <g fill="#1a1a1a">
        <path d="m 2526.1882,-191.46432 q 0,-11.73399 -2.1616,-20.99768 -2.1615,-9.26368 -9.2636,-17.2922 -6.7934,-8.33732 -19.7626,-16.05706 -12.6603,-7.71973 -33.9668,-16.36583 -25.3207,-9.57248 -48.4799,-21.92405 -22.8505,-12.35158 -40.4515,-29.02621 -17.2922,-16.98342 -27.791,-38.90747 -10.1901,-22.23284 -10.1901,-51.56783 0,-28.09984 10.4989,-51.25905 10.4988,-23.468 29.335,-39.83384 19.1449,-16.36584 45.0832,-25.32073 26.2471,-9.26368 57.7437,-9.26368 32.4228,0 58.3612,10.49884 26.2471,10.19005 44.4656,28.71741 18.5274,18.21858 28.4087,43.8481 9.8812,25.32074 9.8812,55.89089 h -90.4753 q 0,-14.20431 -3.0879,-25.93831 -2.7791,-12.04279 -9.2637,-20.3801 -6.1757,-8.64611 -16.057,-13.27795 -9.8813,-4.94063 -23.7768,-4.94063 -12.9692,0 -22.5416,4.01426 -9.2637,4.01426 -15.4395,11.11642 -6.1758,6.79337 -9.2637,16.36584 -3.0879,9.57247 -3.0879,20.3801 0,11.11642 4.6319,20.07132 4.9406,8.95489 13.5867,16.67463 8.9549,7.71973 21.3065,14.5131 12.6603,6.79337 27.791,13.27795 31.4965,11.4252 54.9645,25.32073 23.468,13.89552 39.2163,31.49652 15.7483,17.601 23.468,39.83384 7.7197,21.92405 7.7197,49.7151 0,29.64378 -9.8812,52.80299 -9.5725,23.15921 -27.7911,39.21626 -17.9098,15.748258 -43.5393,24.394362 -25.6295,8.337315 -57.7436,8.337315 -29.0262,0 -57.1261,-8.646104 -27.791,-8.954894 -49.7151,-27.173473 -21.924,-18.21857 -35.5107,-46.00962 -13.278,-27.79105 -13.278,-66.08094 h 91.0929 q 0,20.3801 4.0143,34.58442 4.0142,14.20431 12.0427,23.1592 8.3374,8.64611 20.3802,12.66037 12.0427,3.70547 28.0998,3.70547 12.9691,0 21.924,-3.70547 9.2637,-4.01426 14.8219,-10.49884 5.867,-6.79337 8.3373,-16.05705 2.4704,-9.26368 2.4704,-20.07132 z"/>
        <path d="m 2914.9541,-148.85137 h 159.3353 v 75.344618 H 2824.17 V -523.10417 h 90.7841 z"/>
        <path d="m 3577.3074,-223.26963 q -3.3967,76.88857 -43.2305,116.41362 -39.8339,39.525047 -112.3994,39.525047 -37.3635,0 -66.6985,-12.351578 -29.335,-12.351577 -49.4063,-36.745939 -20.0713,-24.39437 -30.8789,-60.21394 -10.4989,-36.12837 -10.4989,-83.06436 v -76.57978 q 0,-46.93599 10.8076,-83.06436 11.1165,-36.12836 31.8054,-60.52272 20.6889,-24.39437 50.0238,-36.74595 29.335,-12.66036 66.081,-12.66036 73.4919,0 111.473,41.06899 38.2899,41.069 43.5393,117.95756 h -91.0929 q -0.6176,-24.08557 -4.3231,-40.14262 -3.3966,-16.36584 -10.8076,-25.93831 -7.4109,-9.57248 -19.4537,-13.58674 -11.734,-4.01426 -29.335,-4.01426 -18.2186,0 -31.1877,6.17579 -12.6604,6.17578 -20.6889,20.07131 -8.0286,13.58673 -12.0428,36.12836 -3.7055,22.23284 -3.7055,54.65573 v 77.19736 q 0,31.49652 3.0879,53.72936 3.0879,22.23284 10.8076,36.43715 7.7198,13.89553 20.3801,20.38011 12.6604,6.48458 32.1141,6.48458 16.6747,0 28.4087,-3.39669 12.0427,-3.70547 19.7625,-12.66037 7.7197,-8.95489 11.734,-24.70315 4.0142,-15.74826 4.9406,-39.83384 z"/>
        <path d="m 3949.7075,-257.85404 q 0,47.24478 -11.734,83.06435 -11.734,35.81958 -33.0405,59.59636 -20.9977,23.776791 -50.9502,35.819579 -29.6438,12.042788 -65.7722,12.042788 -36.1284,0 -66.0809,-12.042788 -29.9526,-12.042788 -51.5679,-35.819579 -21.3064,-23.77678 -33.3492,-59.59636 -11.734,-35.81957 -11.734,-83.06435 v -74.72705 q 0,-48.47994 11.734,-85.22588 11.734,-37.05473 33.0404,-61.75789 21.3065,-24.70315 51.2591,-37.05473 29.9526,-12.66036 66.0809,-12.66036 36.1284,0 65.7722,12.66036 29.9525,12.35158 51.259,37.05473 21.6153,24.70316 33.3493,61.75789 11.734,36.74594 11.734,85.22588 z m -91.0929,-75.34462 q 0,-32.11411 -4.6318,-54.65573 -4.6319,-22.85042 -13.5868,-37.36353 -8.9549,-14.5131 -22.2328,-21.30647 -13.278,-6.79336 -30.5702,-6.79336 -17.601,0 -30.8789,6.79336 -13.278,6.79337 -22.2329,21.30647 -8.9548,14.51311 -13.5867,37.36353 -4.6318,22.54162 -4.6318,54.65573 v 75.34462 q 0,30.57015 4.6318,52.4942 4.6319,21.61526 13.5867,35.51079 9.2637,13.89552 22.5417,20.3801 13.5867,6.48458 31.1877,6.48458 17.2922,0 30.2614,-6.48458 13.2779,-6.48458 22.2328,-20.3801 8.9549,-13.89553 13.278,-35.51079 4.6318,-21.92405 4.6318,-52.4942 z"/>
        <path d="m 4329.2096,-73.506752 h -90.784 L 4105.6461,-368.40066 V -73.506752 H 4014.862 V -523.10417 h 90.7841 l 133.0882,295.2027 v -295.2027 h 90.4753 z"/>
        <path d="m 4592.6071,-191.46432 q 0,-11.73399 -2.1615,-20.99768 -2.1615,-9.26368 -9.2637,-17.2922 -6.7934,-8.33732 -19.7625,-16.05706 -12.6604,-7.71973 -33.9669,-16.36583 -25.3207,-9.57248 -48.4799,-21.92405 -22.8504,-12.35158 -40.4514,-29.02621 -17.2922,-16.98342 -27.7911,-38.90747 -10.19,-22.23284 -10.19,-51.56783 0,-28.09984 10.4988,-51.25905 10.4989,-23.468 29.335,-39.83384 19.145,-16.36584 45.0833,-25.32073 26.2471,-9.26368 57.7436,-9.26368 32.4229,0 58.3612,10.49884 26.2471,10.19005 44.4657,28.71741 18.5273,18.21858 28.4086,43.8481 9.8813,25.32074 9.8813,55.89089 h -90.4753 q 0,-14.20431 -3.0879,-25.93831 -2.7791,-12.04279 -9.2637,-20.3801 -6.1758,-8.64611 -16.0571,-13.27795 -9.8812,-4.94063 -23.7767,-4.94063 -12.9692,0 -22.5417,4.01426 -9.2637,4.01426 -15.4394,11.11642 -6.1758,6.79337 -9.2637,16.36584 -3.0879,9.57247 -3.0879,20.3801 0,11.11642 4.6318,20.07132 4.9406,8.95489 13.5867,16.67463 8.9549,7.71973 21.3065,14.5131 12.6604,6.79337 27.7911,13.27795 31.4965,11.4252 54.9645,25.32073 23.468,13.89552 39.2162,31.49652 15.7483,17.601 23.468,39.83384 7.7198,21.92405 7.7198,49.7151 0,29.64378 -9.8813,52.80299 -9.5725,23.15921 -27.791,39.21626 -17.9098,15.748258 -43.5393,24.394362 -25.6296,8.337315 -57.7437,8.337315 -29.0262,0 -57.126,-8.646104 -27.7911,-8.954894 -49.7151,-27.173473 -21.9241,-18.21857 -35.5108,-46.00962 -13.2779,-27.79105 -13.2779,-66.08094 h 91.0928 q 0,20.3801 4.0143,34.58442 4.0143,14.20431 12.0428,23.1592 8.3373,8.64611 20.3801,12.66037 12.0428,3.70547 28.0998,3.70547 12.9692,0 21.9241,-3.70547 9.2637,-4.01426 14.8219,-10.49884 5.867,-6.79337 8.3373,-16.05705 2.4703,-9.26368 2.4703,-20.07132 z"/>
        <path d="m 5036.0287,-447.45075 h -111.1642 v 373.943998 h -91.0929 V -447.45075 h -109.3114 v -75.65342 h 311.5685 z"/>
        <path d="m 5224.3902,-237.78273 h -45.0833 v 164.275978 h -90.7841 V -523.10417 h 144.8223 q 33.658,0 59.9051,8.9549 26.5559,8.6461 44.7745,25.93831 18.5274,16.98342 28.0998,42.30415 9.8813,25.32074 9.8813,58.67 0,24.39436 -4.6318,44.15688 -4.3231,19.45374 -12.9692,34.89321 -8.3373,15.13068 -20.3801,26.55589 -12.0428,11.42521 -27.1735,19.76252 l 78.7413,184.038506 v 4.323052 h -97.5774 z m -45.0833,-75.65341 h 51.5679 q 27.1734,0 40.7602,-17.90979 13.5867,-18.21857 13.5867,-48.47994 0,-15.43947 -3.0879,-27.79105 -2.7791,-12.66036 -9.2637,-21.30647 -6.1758,-8.95489 -16.057,-13.58673 -9.8813,-4.94063 -23.468,-4.94063 h -54.0382 z"/>
        <path d="m 5731.4226,-523.10417 v 308.78944 q 0,39.21625 -11.1165,67.0073 -10.8076,27.79105 -30.5701,45.70084 -19.4537,17.600997 -46.6272,25.938312 -27.1735,8.337315 -59.2876,8.337315 -32.7317,0 -60.2139,-8.337315 -27.1735,-8.337315 -46.936,-25.938312 -19.4538,-17.90979 -30.5702,-45.70084 -10.8076,-27.79105 -10.8076,-67.0073 v -308.78944 h 91.4017 v 308.78944 q 0,22.23284 3.7054,36.12836 3.7055,13.89552 10.8077,21.92405 7.4109,7.71974 17.9098,10.80763 10.8076,2.77911 24.7031,2.77911 13.8955,0 24.3944,-2.77911 10.8076,-3.08789 17.9098,-10.80763 7.1021,-8.02853 10.8076,-21.92405 3.7055,-13.89552 3.7055,-36.12836 v -308.78944 z"/>
        <path d="m 6105.6753,-223.26963 q -3.3967,76.88857 -43.2306,116.41362 -39.8338,39.525047 -112.3993,39.525047 -37.3635,0 -66.6985,-12.351578 -29.335,-12.351577 -49.4063,-36.745939 -20.0714,-24.39437 -30.879,-60.21394 -10.4988,-36.12837 -10.4988,-83.06436 v -76.57978 q 0,-46.93599 10.8076,-83.06436 11.1164,-36.12836 31.8053,-60.52272 20.6889,-24.39437 50.0239,-36.74595 29.335,-12.66036 66.0809,-12.66036 73.4919,0 111.473,41.06899 38.2899,41.069 43.5393,117.95756 H 6015.2 q -0.6176,-24.08557 -4.3231,-40.14262 -3.3967,-16.36584 -10.8076,-25.93831 -7.411,-9.57248 -19.4538,-13.58674 -11.734,-4.01426 -29.335,-4.01426 -18.2185,0 -31.1877,6.17579 -12.6604,6.17578 -20.6889,20.07131 -8.0285,13.58673 -12.0428,36.12836 -3.7054,22.23284 -3.7054,54.65573 v 77.19736 q 0,31.49652 3.0879,53.72936 3.0878,22.23284 10.8076,36.43715 7.7197,13.89553 20.3801,20.38011 12.6604,6.48458 32.1141,6.48458 16.6746,0 28.4086,-3.39669 12.0428,-3.70547 19.7625,-12.66037 7.7198,-8.95489 11.734,-24.70315 4.0143,-15.74826 4.9407,-39.83384 z"/>
        <path d="m 6444.1085,-447.45075 h -111.1641 v 373.943998 h -91.0929 V -447.45075 H 6132.54 v -75.65342 h 311.5685 z"/>
        <path d="m 6591.0922,-73.506752 h -90.784 V -523.10417 h 90.784 z"/>
        <path d="m 6984.4901,-257.85404 q 0,47.24478 -11.734,83.06435 -11.734,35.81958 -33.0405,59.59636 -20.9977,23.776791 -50.9503,35.819579 -29.6437,12.042788 -65.7721,12.042788 -36.1284,0 -66.0809,-12.042788 -29.9526,-12.042788 -51.5679,-35.819579 -21.3064,-23.77678 -33.3492,-59.59636 -11.734,-35.81957 -11.734,-83.06435 v -74.72705 q 0,-48.47994 11.734,-85.22588 11.734,-37.05473 33.0404,-61.75789 21.3065,-24.70315 51.2591,-37.05473 29.9526,-12.66036 66.0809,-12.66036 36.1284,0 65.7722,12.66036 29.9525,12.35158 51.259,37.05473 21.6153,24.70316 33.3493,61.75789 11.734,36.74594 11.734,85.22588 z m -91.0929,-75.34462 q 0,-32.11411 -4.6319,-54.65573 -4.6318,-22.85042 -13.5867,-37.36353 -8.9549,-14.5131 -22.2328,-21.30647 -13.278,-6.79336 -30.5702,-6.79336 -17.601,0 -30.8789,6.79336 -13.278,6.79337 -22.2329,21.30647 -8.9549,14.51311 -13.5867,37.36353 -4.6318,22.54162 -4.6318,54.65573 v 75.34462 q 0,30.57015 4.6318,52.4942 4.6318,21.61526 13.5867,35.51079 9.2637,13.89552 22.5417,20.3801 13.5867,6.48458 31.1877,6.48458 17.2922,0 30.2614,-6.48458 13.2779,-6.48458 22.2328,-20.3801 8.9549,-13.89553 13.2779,-35.51079 4.6319,-21.92405 4.6319,-52.4942 z"/>
        <path d="M 7363.9921,-73.506752 H 7273.208 L 7140.4286,-368.40066 v 294.893908 h -90.7841 V -523.10417 h 90.7841 l 133.0882,295.2027 v -295.2027 h 90.4753 z"/>
      </g>
      <g fill="#aa8800" transform="matrix(3.5317317,0,0,3.5317317,-5457.1214,-618.38037)">
        <g transform="translate(2025.6777,-7.0243386)">
          <path d="m 229.21432,295.58883 c 6.09073,-3.32145 9.39597,-9.14297 9.45878,-16.65976 l 0.0412,-4.93312 -6.96467,10.60226 c -3.83057,5.83125 -7.43057,10.89022 -8,11.24214 -1.19357,0.73767 -1.39862,2.53315 -0.28533,2.49848 0.4125,-0.0128 3,-1.25035 5.75,-2.75 z"/>
          <path d="m 204.52923,291.66904 c 3.38094,-2.50163 5.99968,-10.01925 6.10492,-17.52535 l 0.0802,-5.71853 -11.5,12.37351 c -6.325,6.80543 -11.5,12.68961 -11.5,13.07596 0,0.38634 3.17921,0.49515 7.06491,0.2418 4.93146,-0.32153 7.87575,-1.06059 9.75,-2.44739 z"/>
          <path d="m 164.47416,283.67393 c 3.89222,-3.14498 10.73406,-12.2125 15.70335,-20.81171 1.58916,-2.75 2.24755,-4.48839 1.4631,-3.86309 -0.78446,0.6253 -9.52629,5.31835 -19.42629,10.42901 -9.9,5.11066 -19.29157,10.07203 -20.87016,11.02528 l -2.87016,1.73316 3.36368,1.73943 c 5.40067,2.7928 8.04781,3.38875 13.63648,3.07002 4.08847,-0.23318 6.09277,-0.97301 9,-3.3221 z"/>
        </g>
        <g transform="translate(2025.6777,-7.0243386)">
          <path d="m 126.25505,266.3425 c 2.51312,-1.21658 7.13205,-4.14842 10.26429,-6.5152 6.76178,-5.10934 24.34989,-21.83361 22.19498,-21.10487 -4.13699,1.39902 -16.24515,4.84174 -32,9.09859 -9.625,2.6006 -20.3599,5.58626 -23.85534,6.63479 -3.495434,1.04852 -7.245434,1.90641 -8.333334,1.90641 -1.13324,0 -1.80382,0.53385 -1.57016,1.25 0.69604,2.13336 11.884404,10.61791 14.642834,11.1042 5.28998,0.93259 14.15708,-0.19568 18.65673,-2.37392 z"/>
          <path d="m 100.0171,232.52154 c 7.28548,-2.55324 33.11037,-15.11866 32.4059,-15.76749 -0.50703,-0.46698 -90.765685,1.33188 -91.252485,1.81867 -1.0397,1.0397 8.8268,9.89935 13.9197,12.49917 9.19185,4.69228 12.31445,5.31513 24.6241,4.91161 9.667831,-0.31691 12.902451,-0.86847 20.302785,-3.46196 z"/>
          <path d="m 128.16432,190.52082 c -1.13427,-1.00473 -13.50322,-4.73068 -18.45,-5.55776 -1.925,-0.32185 -5.3,-0.98948 -7.5,-1.48361 -2.2,-0.49413 -8.950004,-1.87321 -15.000004,-3.06461 -6.050001,-1.19141 -13.250001,-2.80907 -16.000001,-3.5948 -2.75,-0.78574 -10.4,-2.61534 -17,-4.06578 -6.6,-1.45044 -13.575,-2.98357 -15.5,-3.40697 -6.4752,-1.42419 -24.4605,-5.20191 -29.0000003,-6.09131 -2.475,-0.48491 -6.3603,-1.26438 -8.634,-1.73217 l -4.134,-0.85051 1.4417,3.45044 c 4.2923,10.27295 12.1775003,19.41076 19.9592003,23.12979 2.6769,1.27935 5.5421,2.70074 6.3671,3.15864 1.9724,1.09476 104.685035,1.20264 103.450005,0.10865 z"/>
        </g>
        <g transform="translate(2025.6777,-7.0243386)">
          <path d="m 118.71432,159.72842 c -2.475,-1.43539 -6.525,-3.74115 -9,-5.1239 -2.475,-1.38275 -7.38521,-4.36541 -10.911584,-6.62814 -3.52637,-2.26273 -10.39253,-6.58905 -15.258141,-9.61405 -4.8656,-3.025 -17.05539,-10.72662 -27.08842,-17.11472 -10.03306,-6.3881 -22.96686,-14.54982 -28.74186,-18.13718 -5.775,-3.587347 -16.5647,-10.371027 -23.9771003,-15.074847 -7.4124,-4.70382 -13.5999004,-8.4296 -13.7500007,-8.27951 -0.5747,0.5747 3.3634003,20.867217 4.6782003,24.106257 5.66500041,13.9555 11.5775004,19.70808 25.0489007,24.37116 3.575,1.23747 7.4,2.63085 8.5,3.09639 4.6136,1.95257 11.6811,4.4821 22.5027,8.05401 6.32643,2.08819 13.30143,4.47435 15.49996,5.30259 3.74653,1.4114 25.242261,8.277 44.497345,14.21216 4.675,1.44101 8.95,2.77432 9.5,2.96291 3.08325,1.0572 2.45124,0.15843 -1.5,-2.13313 z"/>
          <path d="m 132.58629,144.49403 c -0.75458,-1.02757 -3.6991,-5.19007 -6.54337,-9.25 -2.84427,-4.05994 -7.11927,-9.90392 -9.5,-12.98664 -2.38073,-3.08272 -9.26597,-12.08272 -15.30053,-20 C 62.976895,52.053483 56.190425,43.208243 51.467515,37.382593 c -2.8893,-3.56385 -6.3228,-8.06385 -7.6301,-10 -1.3072,-1.93614 -2.6789,-3.74526 -3.0481,-4.02026 -0.3693,-0.275 -1.7599,-2.075 -3.0903,-4 -1.3304,-1.925 -2.8837,-4.01625 -3.4518,-4.64721 -0.5681,-0.63097 -2.6079,-3.2432 -4.5329,-5.8049701 -1.925,-2.56176 -5.075,-6.63328 -7,-9.04782004 -1.925,-2.41453996 -5.0667,-6.43206996 -6.9816,-8.92785996 l -3.4816,-4.5377799 -1.4419,5.7328199 c -0.8836003,3.51339 -1.4613003,10.95927 -1.4920003,19.2328201 -0.055,14.79554 0.9556003,18.39116 7.7297003,27.5 3.3519,4.50725 4.2447,5.37744 29.1275,28.38987 9.8781,9.13557 21.60714,19.98513 26.06457,24.11013 4.45742,4.125 13.42761,12.224997 19.933751,17.999997 10.210674,9.06322 19.960764,17.83355 37.041584,33.3194 4.49304,4.07349 5.38416,4.55243 3.37197,1.8123 z"/>
          <path d="m 135.53064,79.862333 c -17.54722,-44.44782 -24.49283,-62.4724 -31.01995,-80.50000014 -1.09524,-3.02499996 -2.35206,-6.39999996 -2.79294,-7.49999996 -0.44087,-1.1 -1.34242,-3.5749999 -2.003434,-5.4999999 -0.66101,-1.925 -1.57689,-4.4 -2.03529,-5.5 -0.45839,-1.1 -1.79251,-4.925 -2.96471,-8.5 -1.1722,-3.575 -2.53426,-7.4 -3.02682,-8.5 -3.51574,-7.8516 -21.096131,-64.089293 -27.665861,-88.500003 l -0.94197,-3.5 -2.12428,4.0957 c -6.92587,13.35328 -11.29627,33.591123 -11.31677,52.404303 -0.019,17.32482 3.1654,32.3038 10.115,47.58057 1.02097,2.24431 2.80329,6.48305 3.9607,9.41943 4.50704,11.4344499 19.52179,42.1153 23.003501,47.00492 1.09808,1.5421 1.9965,3.04774 1.9965,3.34587 0,0.45223 2.76634,5.28567 8.49004,14.83405 5.106344,8.5185 7.508784,12.14758 11.462574,17.31516 2.52488,3.3 5.36615,7.125 6.31394,8.5 0.94778,1.375 3.52814,4.75 5.73412,7.5 2.20599,2.75 5.78085,7.25 7.94414,10 2.16329,2.75 5.34777,6.574997 7.07662,8.499997 1.72886,1.925 5.64514,6.32365 8.70286,9.77477 3.05772,3.45113 5.67971,6.15113 5.82663,6 0.14692,-0.15112 -6.48365,-17.37477 -14.7346,-38.274767 z"/>
        </g>
      </g>
      <rect x="2332.4932" y="28.38415" width="5077.4326" height="31.394062" fill="#806600"/>
    </g>
  </g>
</svg>
